# xmcd
#
# Track frame offsets:
#	150
#	12891
#	24292
#	42924
#	56819
#	75198
#	89839
#	110615
#	124716
#	154210
#
# Disc length: 2268 seconds
#
# Revision: 1
# Processed by: cddbd v1.5.2PL0 Copyright (c) Steve Scherf et al.
# Submitted via: audiograbber 1.83.01
#
DISCID=7508da0a
DTITLE=Ronnie Sessum - Funk 'n Blues Man
DYEAR=2009
DGENRE=Blues
TTITLE0=She's Solid Gold
TTITLE1=Looking For A Friend
TTITLE2=If We Try One More Time
TTITLE3=You're A Wicked Woman
TTITLE4=Four Wheels Rollin
TTITLE5=Voodoo Doll
TTITLE6=That Woman Crazy
TTITLE7=She's So Funky
TTITLE8=Voodoo
TTITLE9=Here's Your Walking Papers
EXTD=
EXTT0=
EXTT1=
EXTT2=
EXTT3=
EXTT4=
EXTT5=
EXTT6=
EXTT7=
EXTT8=
EXTT9=
PLAYORDER=
